<svg width="48" height="49" viewBox="0 0 48 49" fill="none" xmlns="http://www.w3.org/2000/svg">
<path d="M44.034 12.662L29.036 2.54199C25.978 0.475993 22.022 0.475993 18.968 2.54199L3.966 12.662C1.482 14.338 0 17.126 0 20.12V39.998C0 44.96 4.038 48.998 9 48.998H39C43.962 48.998 48 44.96 48 39.998V20.122C48 17.128 46.518 14.336 44.034 12.662ZM38 47H10V26C10 23.242 12.242 21 15 21H33C35.758 21 38 23.242 38 26V47ZM46 40C46 43.52 43.388 46.442 40 46.928V26C40 22.14 36.86 19 33 19H15C11.14 19 8 22.14 8 26V46.928C4.612 46.442 2 43.52 2 40V20.122C2 17.792 3.152 15.624 5.084 14.32L20.086 4.19799C21.274 3.39599 22.636 2.99199 24 2.99199C25.364 2.99199 26.726 3.39399 27.916 4.19799L42.916 14.32C44.848 15.624 46 17.792 46 20.122V40Z" fill="#667085"/>
<path d="M28 40C28 40.552 27.552 41 27 41H21C20.448 41 20 40.552 20 40C20 39.448 20.448 39 21 39H27C27.552 39 28 39.448 28 40Z" fill="#FDB022"/>
</svg>
