<svg width="48" height="44" viewBox="0 0 48 44" fill="none" xmlns="http://www.w3.org/2000/svg">
<path d="M48 13V35C48 39.962 43.962 44 39 44H37C36.448 44 36 43.552 36 43C36 42.448 36.448 42 37 42H39C42.86 42 46 38.86 46 35V14H2V35C2 38.86 5.14 42 9 42H11C11.552 42 12 42.448 12 43C12 43.552 11.552 44 11 44H9C4.038 44 0 39.962 0 35V9C0 4.038 4.038 0 9 0H15.056C15.828 0 16.6 0.182 17.29 0.528L23.602 3.684C24.016 3.892 24.478 4 24.942 4H38.998C43.96 4 48 8.038 48 13ZM2 12H45.928C45.442 8.612 42.52 6 39 6H24.944C24.172 6 23.4 5.818 22.71 5.472L16.398 2.316C15.984 2.108 15.522 2 15.058 2H9.002C5.142 2 2.002 5.14 2.002 9V12H2Z" fill="#667085"/>
<path d="M27.708 34.292C28.098 34.682 28.098 35.316 27.708 35.706C27.512 35.902 27.256 35.998 27 35.998C26.744 35.998 26.488 35.9 26.292 35.706L23.292 32.706C23.104 32.518 23 32.264 23 31.998V26.998C23 26.446 23.448 25.998 24 25.998C24.552 25.998 25 26.446 25 26.998V31.584L27.708 34.292ZM36 32C36 38.618 30.618 44 24 44C17.382 44 12 38.618 12 32C12 25.382 17.382 20 24 20C30.618 20 36 25.382 36 32ZM34 32C34 26.486 29.514 22 24 22C18.486 22 14 26.486 14 32C14 37.514 18.486 42 24 42C29.514 42 34 37.514 34 32Z" fill="#FDB022"/>
</svg>
