<svg width="49" height="48" viewBox="0 0 49 48" fill="none" xmlns="http://www.w3.org/2000/svg">
<path d="M35.5 0H13.5C6.332 0 0.5 5.832 0.5 13V39C0.5 43.962 4.538 48 9.5 48H39.5C44.462 48 48.5 43.962 48.5 39V13C48.5 5.832 42.668 0 35.5 0ZM46.5 13V18H40.5V3.214C44.056 5.038 46.5 8.736 46.5 13ZM35.5 2C36.542 2 37.544 2.154 38.5 2.426V18H30.5C30.5 14.692 27.808 12 24.5 12C21.192 12 18.5 14.692 18.5 18H10.5V2.426C11.456 2.154 12.458 2 13.5 2H35.5ZM20.5 18C20.5 15.794 22.294 14 24.5 14C26.706 14 28.5 15.794 28.5 18V22C28.5 24.206 26.706 26 24.5 26C22.294 26 20.5 24.206 20.5 22V18ZM8.5 3.214V18H2.5V13C2.5 8.736 4.944 5.04 8.5 3.214ZM40.5 45.898V25C40.5 24.448 40.052 24 39.5 24C38.948 24 38.5 24.448 38.5 25V46H10.5V25C10.5 24.448 10.052 24 9.5 24C8.948 24 8.5 24.448 8.5 25V45.898C5.116 45.408 2.5 42.516 2.5 39V20H18.5V22C18.5 25.308 21.192 28 24.5 28C27.808 28 30.5 25.308 30.5 22V20H46.5V39C46.5 42.516 43.884 45.408 40.5 45.898Z" fill="#E4E7EC"/>
</svg>
