<svg width="49" height="49" viewBox="0 0 49 49" fill="none" xmlns="http://www.w3.org/2000/svg">
<path d="M43.5 49C40.742 49 38.5 46.756 38.5 44V28C38.5 26.346 37.154 25 35.5 25H13.5C11.846 25 10.5 26.346 10.5 28V44C10.5 46.756 8.258 49 5.5 49C2.742 49 0.5 46.756 0.5 44V20.122C0.5 17.124 1.982 14.336 4.466 12.662L19.466 2.53999C22.52 0.477987 26.474 0.475987 29.532 2.53999L44.532 12.662C47.016 14.336 48.498 17.126 48.498 20.122V44C48.498 46.756 46.258 49 43.5 49ZM13.5 23H35.5C38.258 23 40.5 25.244 40.5 28V44C40.5 45.654 41.846 47 43.5 47C45.154 47 46.5 45.654 46.5 44V20.122C46.5 17.79 45.348 15.622 43.416 14.32L28.416 4.19799C26.038 2.59199 22.962 2.59199 20.584 4.19799L5.584 14.32C3.652 15.622 2.5 17.792 2.5 20.122V44C2.5 45.654 3.846 47 5.5 47C7.154 47 8.5 45.654 8.5 44V28C8.5 25.244 10.742 23 13.5 23Z" fill="#667085"/>
<path d="M20.1 49H16.9C15.576 49 14.5 47.922 14.5 46.6V43.4C14.5 42.076 15.576 41 16.9 41H20.1C21.424 41 22.5 42.078 22.5 43.4V46.6C22.5 47.924 21.424 49 20.1 49ZM16.9 43C16.68 43 16.5 43.18 16.5 43.4V46.6C16.5 46.82 16.68 47 16.9 47H20.1C20.32 47 20.5 46.82 20.5 46.6V43.4C20.5 43.18 20.32 43 20.1 43H16.9ZM20.1 37H16.9C15.576 37 14.5 35.922 14.5 34.6V31.4C14.5 30.076 15.576 29 16.9 29H20.1C21.424 29 22.5 30.078 22.5 31.4V34.6C22.5 35.924 21.424 37 20.1 37ZM16.9 31C16.68 31 16.5 31.18 16.5 31.4V34.6C16.5 34.82 16.68 35 16.9 35H20.1C20.32 35 20.5 34.82 20.5 34.6V31.4C20.5 31.18 20.32 31 20.1 31H16.9ZM32.1 49H28.9C27.576 49 26.5 47.922 26.5 46.6V43.4C26.5 42.076 27.576 41 28.9 41H32.1C33.424 41 34.5 42.078 34.5 43.4V46.6C34.5 47.924 33.424 49 32.1 49ZM28.9 43C28.68 43 28.5 43.18 28.5 43.4V46.6C28.5 46.82 28.68 47 28.9 47H32.1C32.32 47 32.5 46.82 32.5 46.6V43.4C32.5 43.18 32.32 43 32.1 43H28.9Z" fill="#FDB022"/>
</svg>
