<svg width="223" height="60" viewBox="0 0 223 60" fill="none" xmlns="http://www.w3.org/2000/svg">
<g clip-path="url(#clip0_8906_42026)">
<path fill-rule="evenodd" clip-rule="evenodd" d="M112.903 17.1609C112.777 17.2879 112.674 18.3031 112.674 19.4167V21.4411H114.9H117.126V19.1853V16.9294H115.129C114.03 16.9294 113.028 17.0336 112.903 17.1609ZM41.5899 17.727C41.496 17.9744 41.4625 24.6509 41.5152 32.5633L41.6108 46.9492L43.7433 47.0523L45.8763 47.1553L45.9694 40.8054L46.0629 34.4554H48.8027H51.5425L54.718 40.7891L57.893 47.1227H60.2832C61.5976 47.1227 62.6757 47.0058 62.6791 46.8624C62.6826 46.7191 61.2572 43.7341 59.5112 40.2286C57.6174 36.4256 56.4909 33.7957 56.7187 33.7079C58.5386 33.0086 60.2756 31.401 61.1353 29.6207C61.9658 27.9004 62.0582 27.3812 61.9096 25.2739C61.6404 21.4623 59.8393 18.9881 56.4526 17.7769C54.5334 17.0908 41.8471 17.0478 41.5899 17.727ZM102.058 22.536C102.058 27.5641 102.031 27.7709 101.446 27.2344C99.6366 25.5755 95.7835 25.1198 93.2848 26.2696C90.3292 27.6297 89.2788 30.2766 89.2788 36.3642C89.2788 42.5392 90.3336 45.1237 93.4183 46.5063C95.6814 47.5208 99.1164 47.2785 100.788 45.9861L102.012 45.0404L102.121 45.9948C102.223 46.8982 102.334 46.9547 104.198 47.0533L106.167 47.1574V32.217V17.2765H104.112H102.058V22.536ZM170.137 22.916L170.039 26.1262L168.926 26.2349C167.854 26.3397 167.813 26.4001 167.813 27.8834C167.813 29.4118 167.822 29.4232 169.011 29.4232H170.21V35.9946C170.21 42.954 170.375 43.9212 171.825 45.461C172.783 46.4789 175.463 47.2764 177.231 47.0696C178.22 46.9537 178.258 46.8839 178.258 45.2139V43.4787L176.888 43.3663C174.38 43.1605 174.32 42.9835 174.32 35.8072V29.4579L176.289 29.3538L178.258 29.2497L178.363 27.7747L178.469 26.2998H176.394H174.32V23.0028V19.7058H172.278H170.236L170.137 22.916ZM55.3896 21.8936C56.8006 22.6585 57.5358 24.1047 57.5358 26.1141C57.5358 27.4336 57.3399 27.9149 56.3642 28.9946L55.193 30.2908L50.5422 30.4043L45.8917 30.5181V26.0374C45.8917 23.573 46.0075 21.438 46.1486 21.2932C46.2896 21.1482 48.1777 21.0888 50.3439 21.1614C53.2255 21.2578 54.5796 21.4546 55.3896 21.8936ZM72.6551 26.003C72.0236 26.1873 70.7612 27.0938 69.8499 28.0173C67.7687 30.1263 67.0125 32.4644 67.0375 36.7112C67.0604 40.5746 67.9539 43.0584 70.0129 44.9818C71.7516 46.6059 73.2804 47.1182 76.3966 47.1206C79.0755 47.123 81.2406 46.4297 82.879 45.0449L84.0777 44.0315L82.8386 42.7655L81.5995 41.4995L80.1323 42.4834C78.2121 43.7709 74.9284 43.9004 73.4017 42.7482C72.1527 41.8063 71.3177 40.3223 71.1763 38.7935L71.0636 37.5789L77.872 37.4845L84.6804 37.3904L84.5201 34.8816C84.3492 32.2038 83.3865 29.5075 82.0916 28.0801C80.7827 26.6371 78.1566 25.6091 75.8582 25.6404C74.7281 25.6556 73.2866 25.8191 72.6551 26.003ZM114.815 25.884L113.017 25.9892V36.5731V47.1574L114.986 47.0533L116.955 46.9492L117.046 36.5603C117.096 30.8465 117.019 26.0832 116.875 25.9753C116.731 25.8673 115.804 25.8264 114.815 25.884ZM130.268 26.2713C129.491 26.6288 128.75 27.0942 128.621 27.3048C128.212 27.976 127.743 27.7175 127.743 26.8203C127.743 25.9909 127.652 25.9527 125.683 25.9527H123.624L123.714 36.451L123.805 46.9492H125.86H127.914L128.086 39.1982L128.257 31.4472L129.375 30.4352C130.293 29.6051 130.8 29.4232 132.195 29.4232C133.591 29.4232 134.098 29.6051 135.015 30.4352L136.134 31.4472L136.305 39.1982L136.476 46.9492L138.462 47.0536L140.448 47.1585L140.346 38.5204L140.244 29.8824L139.263 28.4504C137.428 25.7677 133.454 24.805 130.268 26.2713ZM150.136 26.2696C148.479 27.0317 147.138 28.6958 146.615 30.6379C146.145 32.3794 146.125 39.5865 146.585 41.2638C147.459 44.4546 150.029 46.4286 153.308 46.4286C155.373 46.4286 156.705 45.9917 157.795 44.9568C158.663 44.1329 158.655 44.1117 158.595 46.92C158.546 49.2286 157.764 50.8622 156.337 51.6361C154.939 52.394 152.427 52.2354 150.757 51.2838L149.298 50.453L148.024 51.7586L146.751 53.0638L147.778 53.9183C150.249 55.9735 155.671 56.3587 158.648 54.6901C160.549 53.6243 162.183 51.381 162.644 49.2029C162.869 48.1409 163.018 43.1486 163.018 36.6942V25.9527H160.963C159 25.9527 158.908 25.9912 158.908 26.8203C158.908 27.2975 158.754 27.688 158.566 27.688C158.378 27.688 158.223 27.5457 158.223 27.3718C158.223 27.1979 157.558 26.7294 156.745 26.3307C154.871 25.411 152.058 25.3849 150.136 26.2696ZM187.505 26.4306C185.424 27.4252 184.524 28.3748 183.514 30.642C182.857 32.117 182.743 32.9635 182.746 36.3642C182.749 39.7774 182.865 40.6194 183.544 42.1797C184.399 44.1447 186.092 45.881 187.897 46.6455C189.527 47.3354 193.374 47.2438 195.04 46.4751C196.744 45.6887 198.745 43.4801 199.365 41.7022C200.087 39.6313 199.994 32.7931 199.217 30.7521C198.463 28.7714 196.114 26.4899 194.305 25.9808C192.065 25.3506 189.396 25.5272 187.505 26.4306ZM212.12 26.2713C211.343 26.6288 210.6 27.0966 210.469 27.3104C210.102 27.9122 209.638 27.4235 209.838 26.6465C210.003 26.0086 209.848 25.9527 207.922 25.9527H205.827V36.5551V47.1574L207.797 47.0533L209.766 46.9492L209.937 39.4876C210.055 34.3485 210.245 31.7842 210.547 31.2487C211.454 29.6398 214.309 28.9266 216.252 29.8237C218.171 30.7101 218.318 31.3649 218.437 39.5744L218.547 47.1227H220.578H222.609L222.607 39.5744C222.605 31.6971 222.421 30.2846 221.147 28.3411C219.495 25.8222 215.224 24.8429 212.12 26.2713ZM78.7874 30.3085C79.6905 31.1852 80.4745 32.9853 80.4796 34.1951C80.4813 34.521 79.3296 34.6289 75.8582 34.6289H71.2348V33.5704C71.2348 29.7161 76.0398 27.6408 78.7874 30.3085ZM100.358 30.3776C101.977 31.848 102.537 35.7999 101.692 39.7941C101.16 42.3071 100.047 43.3052 97.776 43.3052C94.4701 43.3052 93.4467 41.6647 93.4467 36.3642C93.4467 31.1362 94.4831 29.4232 97.6462 29.4232C98.975 29.4232 99.5171 29.6141 100.358 30.3776ZM156.813 29.9892C158.081 30.8888 158.566 32.556 158.566 36.0171C158.566 40.7644 157.496 42.6111 154.745 42.6111C151.58 42.6111 150.367 40.8477 150.354 36.2309C150.34 31.256 151.437 29.4232 154.426 29.4232C155.342 29.4232 156.354 29.6634 156.813 29.9892ZM193.51 29.9497C195.235 30.8537 195.715 32.2503 195.715 36.3642C195.715 41.4925 194.594 43.3052 191.423 43.3052C188.148 43.3052 186.887 41.3756 186.887 36.3642C186.887 32.6133 187.493 30.7781 189.005 29.9448C190.19 29.2927 192.26 29.2951 193.51 29.9497Z" fill="#026939"/>
<path d="M44.4218 57.9101C44.4218 58.1126 44.3787 58.3101 44.2926 58.5026C44.2116 58.6899 44.0952 58.857 43.9433 59.0039C43.7913 59.1456 43.604 59.2596 43.3812 59.3456C43.1584 59.4317 42.9052 59.4748 42.6216 59.4748C42.5001 59.4748 42.3735 59.4672 42.2419 59.452C42.1153 59.4419 41.9861 59.4216 41.8545 59.3912C41.7228 59.3608 41.5962 59.3203 41.4747 59.2697C41.3583 59.214 41.257 59.1482 41.1709 59.0722L41.3304 58.419C41.4013 58.4595 41.4899 58.5 41.5962 58.5405C41.7076 58.576 41.8216 58.6114 41.938 58.6469C42.0545 58.6772 42.171 58.7026 42.2874 58.7228C42.4039 58.7431 42.5128 58.7532 42.614 58.7532C42.9229 58.7532 43.1584 58.6823 43.3204 58.5405C43.4875 58.3937 43.5711 58.1785 43.5711 57.8949C43.5711 57.7227 43.5128 57.5759 43.3964 57.4544C43.2799 57.3328 43.1331 57.224 42.9558 57.1278C42.7837 57.0265 42.5963 56.9278 42.3938 56.8315C42.1912 56.7303 42.0013 56.6138 41.8241 56.4822C41.6469 56.3454 41.5 56.1859 41.3836 56.0036C41.2671 55.8213 41.2089 55.5935 41.2089 55.32C41.2089 55.0719 41.2544 54.8517 41.3456 54.6592C41.4367 54.4668 41.5583 54.3048 41.7102 54.1731C41.8672 54.0364 42.0469 53.9326 42.2495 53.8617C42.4571 53.7908 42.6748 53.7554 42.9027 53.7554C43.1356 53.7554 43.3711 53.7782 43.609 53.8237C43.847 53.8642 44.0395 53.9326 44.1863 54.0288C44.1559 54.0946 44.1205 54.1681 44.08 54.2491C44.0395 54.325 44.0015 54.3985 43.966 54.4693C43.9306 54.5352 43.9002 54.5909 43.8749 54.6364C43.8496 54.682 43.8344 54.7073 43.8293 54.7124C43.7989 54.6972 43.7635 54.677 43.723 54.6516C43.6875 54.6263 43.6344 54.601 43.5635 54.5757C43.4926 54.5504 43.3989 54.5326 43.2824 54.5225C43.166 54.5124 43.0166 54.5149 42.8343 54.5301C42.733 54.5402 42.6368 54.5706 42.5457 54.6213C42.4545 54.6668 42.3735 54.7251 42.3026 54.796C42.2317 54.8668 42.176 54.9479 42.1355 55.039C42.095 55.1251 42.0748 55.2086 42.0748 55.2897C42.0748 55.4922 42.133 55.6568 42.2495 55.7834C42.3659 55.9049 42.5102 56.0138 42.6824 56.11C42.8546 56.2011 43.0419 56.2923 43.2445 56.3834C43.447 56.4695 43.6344 56.5758 43.8065 56.7024C43.9838 56.829 44.1306 56.9885 44.2471 57.1809C44.3635 57.3683 44.4218 57.6113 44.4218 57.9101Z" fill="#026939"/>
<path d="M46.4317 54.5377V56.2999H48.7712V56.9227H46.4317V58.7532H49.0066V59.4444H45.5051V53.8465H49.0066V54.5377H46.4317Z" fill="#026939"/>
<path d="M50.1431 59.4444L52.1028 53.8541H53.0066L54.9511 59.4444H54.0092L53.6067 58.2823H51.5027L51.0926 59.4444H50.1431ZM51.7154 57.667H53.3864L52.5585 55.2517L51.7154 57.667Z" fill="#026939"/>
<path d="M60.4854 53.8465H61.412V59.4444H60.4854V55.5935L59.2321 58.7076H58.427L57.1661 55.5935V59.4444H56.2395V53.8465H57.1661L58.8295 57.6746L60.4854 53.8465Z" fill="#026939"/>
<path d="M63.8549 53.8465V58.7532H66.4298V59.4444H62.9283V53.8465H63.8549Z" fill="#026939"/>
<path d="M68.417 54.5377V56.2999H70.7564V56.9227H68.417V58.7532H70.9919V59.4444H67.4903V53.8465H70.9919V54.5377H68.417Z" fill="#026939"/>
<path d="M75.516 57.9101C75.516 58.1126 75.4729 58.3101 75.3868 58.5026C75.3058 58.6899 75.1894 58.857 75.0374 59.0039C74.8855 59.1456 74.6982 59.2596 74.4754 59.3456C74.2526 59.4317 73.9994 59.4748 73.7158 59.4748C73.5943 59.4748 73.4677 59.4672 73.3361 59.452C73.2095 59.4419 73.0803 59.4216 72.9487 59.3912C72.817 59.3608 72.6904 59.3203 72.5689 59.2697C72.4524 59.214 72.3512 59.1482 72.2651 59.0722L72.4246 58.419C72.4955 58.4595 72.5841 58.5 72.6904 58.5405C72.8018 58.576 72.9158 58.6114 73.0322 58.6469C73.1487 58.6772 73.2652 58.7026 73.3816 58.7228C73.4981 58.7431 73.607 58.7532 73.7082 58.7532C74.0171 58.7532 74.2526 58.6823 74.4146 58.5405C74.5817 58.3937 74.6653 58.1785 74.6653 57.8949C74.6653 57.7227 74.607 57.5759 74.4906 57.4544C74.3741 57.3328 74.2273 57.224 74.05 57.1278C73.8779 57.0265 73.6905 56.9278 73.488 56.8315C73.2854 56.7303 73.0955 56.6138 72.9183 56.4822C72.7411 56.3454 72.5942 56.1859 72.4778 56.0036C72.3613 55.8213 72.3031 55.5935 72.3031 55.32C72.3031 55.0719 72.3486 54.8517 72.4398 54.6592C72.5309 54.4668 72.6525 54.3048 72.8044 54.1731C72.9613 54.0364 73.1411 53.9326 73.3436 53.8617C73.5513 53.7908 73.769 53.7554 73.9969 53.7554C74.2298 53.7554 74.4652 53.7782 74.7032 53.8237C74.9412 53.8642 75.1337 53.9326 75.2805 54.0288C75.2501 54.0946 75.2147 54.1681 75.1742 54.2491C75.1337 54.325 75.0957 54.3985 75.0602 54.4693C75.0248 54.5352 74.9944 54.5909 74.9691 54.6364C74.9438 54.682 74.9286 54.7073 74.9235 54.7124C74.8931 54.6972 74.8577 54.677 74.8172 54.6516C74.7817 54.6263 74.7286 54.601 74.6577 54.5757C74.5868 54.5504 74.4931 54.5326 74.3766 54.5225C74.2602 54.5124 74.1108 54.5149 73.9285 54.5301C73.8272 54.5402 73.731 54.5706 73.6399 54.6213C73.5487 54.6668 73.4677 54.7251 73.3968 54.796C73.3259 54.8668 73.2702 54.9479 73.2297 55.039C73.1892 55.1251 73.169 55.2086 73.169 55.2897C73.169 55.4922 73.2272 55.6568 73.3436 55.7834C73.4601 55.9049 73.6044 56.0138 73.7766 56.11C73.9488 56.2011 74.1361 56.2923 74.3387 56.3834C74.5412 56.4695 74.7286 56.5758 74.9007 56.7024C75.0779 56.829 75.2248 56.9885 75.3413 57.1809C75.4577 57.3683 75.516 57.6113 75.516 57.9101Z" fill="#026939"/>
<path d="M79.7438 57.9101C79.7438 58.1126 79.7008 58.3101 79.6147 58.5026C79.5337 58.6899 79.4172 58.857 79.2653 59.0039C79.1134 59.1456 78.926 59.2596 78.7032 59.3456C78.4804 59.4317 78.2273 59.4748 77.9437 59.4748C77.8222 59.4748 77.6956 59.4672 77.5639 59.452C77.4373 59.4419 77.3082 59.4216 77.1765 59.3912C77.0449 59.3608 76.9183 59.3203 76.7968 59.2697C76.6803 59.214 76.579 59.1482 76.493 59.0722L76.6525 58.419C76.7234 58.4595 76.812 58.5 76.9183 58.5405C77.0297 58.576 77.1436 58.6114 77.2601 58.6469C77.3766 58.6772 77.493 58.7026 77.6095 58.7228C77.726 58.7431 77.8348 58.7532 77.9361 58.7532C78.245 58.7532 78.4804 58.6823 78.6425 58.5405C78.8096 58.3937 78.8931 58.1785 78.8931 57.8949C78.8931 57.7227 78.8349 57.5759 78.7184 57.4544C78.602 57.3328 78.4551 57.224 78.2779 57.1278C78.1057 57.0265 77.9184 56.9278 77.7158 56.8315C77.5133 56.7303 77.3234 56.6138 77.1462 56.4822C76.9689 56.3454 76.8221 56.1859 76.7056 56.0036C76.5892 55.8213 76.5309 55.5935 76.5309 55.32C76.5309 55.0719 76.5765 54.8517 76.6676 54.6592C76.7588 54.4668 76.8803 54.3048 77.0322 54.1731C77.1892 54.0364 77.369 53.9326 77.5715 53.8617C77.7791 53.7908 77.9969 53.7554 78.2247 53.7554C78.4577 53.7554 78.6931 53.7782 78.9311 53.8237C79.1691 53.8642 79.3615 53.9326 79.5084 54.0288C79.478 54.0946 79.4425 54.1681 79.402 54.2491C79.3615 54.325 79.3235 54.3985 79.2881 54.4693C79.2526 54.5352 79.2223 54.5909 79.1969 54.6364C79.1716 54.682 79.1564 54.7073 79.1514 54.7124C79.121 54.6972 79.0855 54.677 79.045 54.6516C79.0096 54.6263 78.9564 54.601 78.8855 54.5757C78.8146 54.5504 78.721 54.5326 78.6045 54.5225C78.488 54.5124 78.3387 54.5149 78.1564 54.5301C78.0551 54.5402 77.9589 54.5706 77.8677 54.6213C77.7766 54.6668 77.6956 54.7251 77.6247 54.796C77.5538 54.8668 77.4981 54.9479 77.4576 55.039C77.4171 55.1251 77.3968 55.2086 77.3968 55.2897C77.3968 55.4922 77.455 55.6568 77.5715 55.7834C77.688 55.9049 77.8323 56.0138 78.0045 56.11C78.1766 56.2011 78.364 56.2923 78.5665 56.3834C78.7691 56.4695 78.9564 56.5758 79.1286 56.7024C79.3058 56.829 79.4527 56.9885 79.5691 57.1809C79.6856 57.3683 79.7438 57.6113 79.7438 57.9101Z" fill="#026939"/>
<path d="M83.9005 59.4444H82.989V53.8465H84.5993C84.8373 53.8465 85.0727 53.8845 85.3057 53.9604C85.5386 54.0364 85.7462 54.1503 85.9285 54.3022C86.1159 54.4542 86.2652 54.639 86.3766 54.8567C86.4931 55.0694 86.5513 55.3099 86.5513 55.5783C86.5513 55.8619 86.5032 56.1201 86.407 56.353C86.3108 56.5809 86.1766 56.7733 86.0045 56.9303C85.8323 57.0873 85.6247 57.2088 85.3816 57.2949C85.1386 57.381 84.8702 57.424 84.5765 57.424H83.9005V59.4444ZM83.9005 54.5377V56.7556H84.736C84.8474 56.7556 84.9563 56.7379 85.0626 56.7024C85.174 56.6619 85.2753 56.5986 85.3664 56.5125C85.4576 56.4265 85.531 56.3075 85.5867 56.1555C85.6424 55.9986 85.6703 55.8062 85.6703 55.5783C85.6703 55.4871 85.6576 55.3833 85.6323 55.2669C85.607 55.1453 85.5538 55.0314 85.4728 54.9251C85.3968 54.8137 85.2879 54.7225 85.1462 54.6516C85.0044 54.5757 84.817 54.5377 84.5841 54.5377H83.9005Z" fill="#026939"/>
<path d="M87.4828 59.4444L89.4424 53.8541H90.3463L92.2907 59.4444H91.3489L90.9463 58.2823H88.8423L88.4322 59.4444H87.4828ZM89.055 57.667H90.726L89.8981 55.2517L89.055 57.667Z" fill="#026939"/>
<path d="M96.397 59.4444L95.3413 57.4164C95.3261 57.4164 95.3058 57.4189 95.2805 57.424C95.2552 57.424 95.2147 57.424 95.159 57.424C95.1083 57.424 95.0273 57.424 94.9159 57.424C94.8096 57.424 94.6627 57.424 94.4754 57.424V59.4444H93.5639V53.8465H95.1742C95.4122 53.8465 95.6476 53.8845 95.8805 53.9604C96.1135 54.0364 96.3211 54.1503 96.5034 54.3022C96.6907 54.4542 96.8401 54.639 96.9515 54.8567C97.068 55.0694 97.1262 55.3099 97.1262 55.5783C97.1262 55.9834 97.0325 56.3277 96.8452 56.6113C96.6578 56.8948 96.4046 57.105 96.0856 57.2417L97.3617 59.4444H96.397ZM94.4754 56.7556H95.3033C95.4147 56.7556 95.5261 56.7379 95.6375 56.7024C95.7489 56.6619 95.8502 56.5986 95.9413 56.5125C96.0325 56.4265 96.1059 56.3075 96.1616 56.1555C96.2173 55.9986 96.2451 55.8062 96.2451 55.5783C96.2451 55.4871 96.2325 55.3833 96.2071 55.2669C96.1818 55.1453 96.1287 55.0314 96.0476 54.9251C95.9717 54.8137 95.8628 54.7225 95.721 54.6516C95.5793 54.5757 95.3919 54.5377 95.159 54.5377H94.4754V56.7556Z" fill="#026939"/>
<path d="M102.653 53.8465V54.4693H100.982V59.4444H100.063V54.4693H98.3918V53.8465H102.653Z" fill="#026939"/>
<path d="M107.899 53.8465V59.4444H106.972L104.777 55.5859V59.4444H103.85V53.8465H104.777L106.972 57.705V53.8465H107.899Z" fill="#026939"/>
<path d="M110.349 54.5377V56.2999H112.688V56.9227H110.349V58.7532H112.924V59.4444H109.422V53.8465H112.924V54.5377H110.349Z" fill="#026939"/>
<path d="M117.099 59.4444L116.043 57.4164C116.028 57.4164 116.007 57.4189 115.982 57.424C115.957 57.424 115.916 57.424 115.861 57.424C115.81 57.424 115.729 57.424 115.618 57.424C115.511 57.424 115.364 57.424 115.177 57.424V59.4444H114.266V53.8465H115.876C116.114 53.8465 116.349 53.8845 116.582 53.9604C116.815 54.0364 117.023 54.1503 117.205 54.3022C117.392 54.4542 117.542 54.639 117.653 54.8567C117.77 55.0694 117.828 55.3099 117.828 55.5783C117.828 55.9834 117.734 56.3277 117.547 56.6113C117.359 56.8948 117.106 57.105 116.787 57.2417L118.063 59.4444H117.099ZM115.177 56.7556H116.005C116.116 56.7556 116.228 56.7379 116.339 56.7024C116.45 56.6619 116.552 56.5986 116.643 56.5125C116.734 56.4265 116.807 56.3075 116.863 56.1555C116.919 55.9986 116.947 55.8062 116.947 55.5783C116.947 55.4871 116.934 55.3833 116.909 55.2669C116.883 55.1453 116.83 55.0314 116.749 54.9251C116.673 54.8137 116.564 54.7225 116.423 54.6516C116.281 54.5757 116.094 54.5377 115.861 54.5377H115.177V56.7556Z" fill="#026939"/>
<path d="M122.572 57.9101C122.572 58.1126 122.529 58.3101 122.443 58.5026C122.362 58.6899 122.246 58.857 122.094 59.0039C121.942 59.1456 121.754 59.2596 121.532 59.3456C121.309 59.4317 121.056 59.4748 120.772 59.4748C120.651 59.4748 120.524 59.4672 120.392 59.452C120.266 59.4419 120.137 59.4216 120.005 59.3912C119.873 59.3608 119.747 59.3203 119.625 59.2697C119.509 59.214 119.407 59.1482 119.321 59.0722L119.481 58.419C119.552 58.4595 119.64 58.5 119.747 58.5405C119.858 58.576 119.972 58.6114 120.088 58.6469C120.205 58.6772 120.321 58.7026 120.438 58.7228C120.554 58.7431 120.663 58.7532 120.764 58.7532C121.073 58.7532 121.309 58.6823 121.471 58.5405C121.638 58.3937 121.721 58.1785 121.721 57.8949C121.721 57.7227 121.663 57.5759 121.547 57.4544C121.43 57.3328 121.283 57.224 121.106 57.1278C120.934 57.0265 120.747 56.9278 120.544 56.8315C120.342 56.7303 120.152 56.6138 119.975 56.4822C119.797 56.3454 119.65 56.1859 119.534 56.0036C119.418 55.8213 119.359 55.5935 119.359 55.32C119.359 55.0719 119.405 54.8517 119.496 54.6592C119.587 54.4668 119.709 54.3048 119.861 54.1731C120.018 54.0364 120.197 53.9326 120.4 53.8617C120.607 53.7908 120.825 53.7554 121.053 53.7554C121.286 53.7554 121.521 53.7782 121.759 53.8237C121.997 53.8642 122.19 53.9326 122.337 54.0288C122.306 54.0946 122.271 54.1681 122.23 54.2491C122.19 54.325 122.152 54.3985 122.116 54.4693C122.081 54.5352 122.051 54.5909 122.025 54.6364C122 54.682 121.985 54.7073 121.98 54.7124C121.949 54.6972 121.914 54.677 121.873 54.6516C121.838 54.6263 121.785 54.601 121.714 54.5757C121.643 54.5504 121.549 54.5326 121.433 54.5225C121.316 54.5124 121.167 54.5149 120.985 54.5301C120.883 54.5402 120.787 54.5706 120.696 54.6213C120.605 54.6668 120.524 54.7251 120.453 54.796C120.382 54.8668 120.326 54.9479 120.286 55.039C120.245 55.1251 120.225 55.2086 120.225 55.2897C120.225 55.4922 120.283 55.6568 120.4 55.7834C120.516 55.9049 120.661 56.0138 120.833 56.11C121.005 56.2011 121.192 56.2923 121.395 56.3834C121.597 56.4695 121.785 56.5758 121.957 56.7024C122.134 56.829 122.281 56.9885 122.397 57.1809C122.514 57.3683 122.572 57.6113 122.572 57.9101Z" fill="#026939"/>
<path d="M127.909 53.8465V59.4444H126.998V56.9227H124.575V59.4444H123.648V53.8465H124.575V56.2999H126.998V53.8465H127.909Z" fill="#026939"/>
<path d="M130.375 59.4444H129.448V53.8465H130.375V59.4444Z" fill="#026939"/>
<path d="M132.787 59.4444H131.876V53.8465H133.486C133.724 53.8465 133.959 53.8845 134.192 53.9604C134.425 54.0364 134.633 54.1503 134.815 54.3022C135.003 54.4542 135.152 54.639 135.263 54.8567C135.38 55.0694 135.438 55.3099 135.438 55.5783C135.438 55.8619 135.39 56.1201 135.294 56.353C135.198 56.5809 135.063 56.7733 134.891 56.9303C134.719 57.0873 134.511 57.2088 134.268 57.2949C134.025 57.381 133.757 57.424 133.463 57.424H132.787V59.4444ZM132.787 54.5377V56.7556H133.623C133.734 56.7556 133.843 56.7379 133.949 56.7024C134.061 56.6619 134.162 56.5986 134.253 56.5125C134.344 56.4265 134.418 56.3075 134.473 56.1555C134.529 55.9986 134.557 55.8062 134.557 55.5783C134.557 55.4871 134.544 55.3833 134.519 55.2669C134.494 55.1453 134.441 55.0314 134.359 54.9251C134.284 54.8137 134.175 54.7225 134.033 54.6516C133.891 54.5757 133.704 54.5377 133.471 54.5377H132.787Z" fill="#026939"/>
<path d="M139.757 57.9101C139.757 58.1126 139.714 58.3101 139.628 58.5026C139.547 58.6899 139.43 58.857 139.279 59.0039C139.127 59.1456 138.939 59.2596 138.716 59.3456C138.494 59.4317 138.241 59.4748 137.957 59.4748C137.835 59.4748 137.709 59.4672 137.577 59.452C137.451 59.4419 137.321 59.4216 137.19 59.3912C137.058 59.3608 136.932 59.3203 136.81 59.2697C136.694 59.214 136.592 59.1482 136.506 59.0722L136.666 58.419C136.737 58.4595 136.825 58.5 136.932 58.5405C137.043 58.576 137.157 58.6114 137.273 58.6469C137.39 58.6772 137.506 58.7026 137.623 58.7228C137.739 58.7431 137.848 58.7532 137.949 58.7532C138.258 58.7532 138.494 58.6823 138.656 58.5405C138.823 58.3937 138.906 58.1785 138.906 57.8949C138.906 57.7227 138.848 57.5759 138.732 57.4544C138.615 57.3328 138.468 57.224 138.291 57.1278C138.119 57.0265 137.932 56.9278 137.729 56.8315C137.527 56.7303 137.337 56.6138 137.159 56.4822C136.982 56.3454 136.835 56.1859 136.719 56.0036C136.602 55.8213 136.544 55.5935 136.544 55.32C136.544 55.0719 136.59 54.8517 136.681 54.6592C136.772 54.4668 136.894 54.3048 137.045 54.1731C137.202 54.0364 137.382 53.9326 137.585 53.8617C137.792 53.7908 138.01 53.7554 138.238 53.7554C138.471 53.7554 138.706 53.7782 138.944 53.8237C139.182 53.8642 139.375 53.9326 139.522 54.0288C139.491 54.0946 139.456 54.1681 139.415 54.2491C139.375 54.325 139.337 54.3985 139.301 54.4693C139.266 54.5352 139.236 54.5909 139.21 54.6364C139.185 54.682 139.17 54.7073 139.165 54.7124C139.134 54.6972 139.099 54.677 139.058 54.6516C139.023 54.6263 138.97 54.601 138.899 54.5757C138.828 54.5504 138.734 54.5326 138.618 54.5225C138.501 54.5124 138.352 54.5149 138.17 54.5301C138.068 54.5402 137.972 54.5706 137.881 54.6213C137.79 54.6668 137.709 54.7251 137.638 54.796C137.567 54.8668 137.511 54.9479 137.471 55.039C137.43 55.1251 137.41 55.2086 137.41 55.2897C137.41 55.4922 137.468 55.6568 137.585 55.7834C137.701 55.9049 137.846 56.0138 138.018 56.11C138.19 56.2011 138.377 56.2923 138.58 56.3834C138.782 56.4695 138.97 56.5758 139.142 56.7024C139.319 56.829 139.466 56.9885 139.582 57.1809C139.699 57.3683 139.757 57.6113 139.757 57.9101Z" fill="#026939"/>
<path d="M18.2609 31.884L8.4058 26.3767L0 30.4347V42.0289L7.53623 46.0869V37.9709L18.2609 31.884Z" fill="#5BB559"/>
<path d="M13.3338 26.6668L23.4787 32.4639L33.0439 27.2465V16.232L23.4787 11.0146V21.7392L13.3338 26.6668Z" fill="#5BB559"/>
<path d="M33.0438 47.8261V27.2463L11.3047 39.1304V59.4203L33.0438 47.8261Z" fill="#026939"/>
<path d="M0 30.4348V10.7246L20 0L20.2899 20.5797L0 30.4348Z" fill="#019049"/>
</g>
<defs>
<clipPath id="clip0_8906_42026">
<rect width="222.609" height="60" fill="white"/>
</clipPath>
</defs>
</svg>
